<svg width="22" height="22" viewBox="0 0 22 22" fill="none" xmlns="http://www.w3.org/2000/svg">
<g clip-path="url(#clip0_6003_379)">
<mask id="mask0_6003_379" style="mask-type:luminance" maskUnits="userSpaceOnUse" x="0" y="0" width="22" height="22">
<path d="M22 0H0V22H22V0Z" fill="white"/>
</mask>
<g mask="url(#mask0_6003_379)">
<path fill-rule="evenodd" clip-rule="evenodd" d="M1.83331 4.58333C1.83331 3.57082 2.65413 2.75 3.66665 2.75H18.3333C19.3459 2.75 20.1666 3.57083 20.1666 4.58333V13.75C20.1666 14.7625 19.3458 15.5833 18.3333 15.5833H3.66665C2.65414 15.5833 1.83331 14.7625 1.83331 13.75V4.58333ZM18.3333 4.58333H3.66665V13.75H18.3333V4.58333Z" fill="#3A767B"/>
<path fill-rule="evenodd" clip-rule="evenodd" d="M5.5 18.3334C5.5 17.8271 5.91041 17.4167 6.41667 17.4167H15.5833C16.0896 17.4167 16.5 17.8271 16.5 18.3334C16.5 18.8396 16.0896 19.25 15.5833 19.25H6.41667C5.91041 19.25 5.5 18.8396 5.5 18.3334Z" fill="#3A767B"/>
<path fill-rule="evenodd" clip-rule="evenodd" d="M8.24998 13.75C8.75624 13.75 9.16665 14.1604 9.16665 14.6667V18.3333C9.16665 18.8396 8.75624 19.25 8.24998 19.25C7.74372 19.25 7.33331 18.8396 7.33331 18.3333V14.6667C7.33331 14.1604 7.74372 13.75 8.24998 13.75Z" fill="#3A767B"/>
<path fill-rule="evenodd" clip-rule="evenodd" d="M13.75 13.75C14.2562 13.75 14.6666 14.1604 14.6666 14.6667V18.3333C14.6666 18.8396 14.2562 19.25 13.75 19.25C13.2437 19.25 12.8333 18.8396 12.8333 18.3333V14.6667C12.8333 14.1604 13.2437 13.75 13.75 13.75Z" fill="#3A767B"/>
<path fill-rule="evenodd" clip-rule="evenodd" d="M8.24998 6.41669C8.75624 6.41669 9.16665 6.82709 9.16665 7.33335V11C9.16665 11.5063 8.75624 11.9167 8.24998 11.9167C7.74372 11.9167 7.33331 11.5063 7.33331 11V7.33335C7.33331 6.82709 7.74372 6.41669 8.24998 6.41669Z" fill="#3A767B"/>
<path fill-rule="evenodd" clip-rule="evenodd" d="M11 9.16669C11.5062 9.16669 11.9166 9.57709 11.9166 10.0834V11C11.9166 11.5063 11.5062 11.9167 11 11.9167C10.4937 11.9167 10.0833 11.5063 10.0833 11V10.0834C10.0833 9.57709 10.4937 9.16669 11 9.16669Z" fill="#3A767B"/>
<path fill-rule="evenodd" clip-rule="evenodd" d="M13.75 8.25C14.2562 8.25 14.6666 8.66041 14.6666 9.16667V11C14.6666 11.5063 14.2562 11.9167 13.75 11.9167C13.2437 11.9167 12.8333 11.5063 12.8333 11V9.16667C12.8333 8.66041 13.2437 8.25 13.75 8.25Z" fill="#3A767B"/>
<path fill-rule="evenodd" clip-rule="evenodd" d="M11 9.16669C11.5062 9.16669 11.9166 9.57709 11.9166 10.0834V11C11.9166 11.5063 11.5062 11.9167 11 11.9167C10.4937 11.9167 10.0833 11.5063 10.0833 11V10.0834C10.0833 9.57709 10.4937 9.16669 11 9.16669Z" fill="#3A767B"/>
</g>
</g>
<defs>
<clipPath id="clip0_6003_379">
<rect width="22" height="22" fill="white"/>
</clipPath>
</defs>
</svg>
