<svg width="24" height="24" viewBox="0 0 24 24" fill="none" xmlns="http://www.w3.org/2000/svg">
<path d="M8.25 12.6441L16.6797 20.0623C16.7773 20.1481 16.8954 20.2071 17.0226 20.2336C17.1498 20.26 17.2817 20.2529 17.4054 20.213C17.529 20.1732 17.6402 20.1019 17.728 20.0061C17.8158 19.9103 17.8772 19.7934 17.9063 19.6668L21.4325 4.27935C21.463 4.14631 21.4566 4.00747 21.414 3.8778C21.3715 3.74812 21.2943 3.63253 21.1909 3.54347C21.0874 3.45441 20.9617 3.39527 20.8271 3.37241C20.6925 3.34955 20.5543 3.36385 20.4273 3.41375L3.12505 10.211C2.97426 10.2703 2.8467 10.3768 2.76147 10.5145C2.67624 10.6523 2.63791 10.814 2.65223 10.9754C2.66654 11.1368 2.73273 11.2892 2.84088 11.4098C2.94903 11.5304 3.09334 11.6128 3.2522 11.6445L8.25 12.6441Z" stroke="#E7F3F4" stroke-width="2" stroke-linecap="round" stroke-linejoin="round"/>
<path d="M8.25 12.6442L21.0105 3.42822" stroke="#E7F3F4" stroke-width="2" stroke-linecap="round" stroke-linejoin="round"/>
<path d="M12.46 16.3489L9.53033 19.2786C9.42544 19.3835 9.2918 19.4549 9.14632 19.4838C9.00083 19.5128 8.85003 19.4979 8.71299 19.4412C8.57594 19.3844 8.45881 19.2883 8.3764 19.1649C8.29399 19.0416 8.25 18.8966 8.25 18.7483V12.644" stroke="#E7F3F4" stroke-width="2" stroke-linecap="round" stroke-linejoin="round"/>
</svg>
