<svg width="32" height="32" viewBox="0 0 32 32" fill="none" xmlns="http://www.w3.org/2000/svg">
<g clip-path="url(#clip0_933_4332)">
<rect width="32" height="32" fill="#3A767B"/>
<path fill-rule="evenodd" clip-rule="evenodd" d="M25.5073 20.0177C25.047 20.6441 24.4153 21.3577 23.5601 21.6796C22.3666 22.1289 21.2295 22.1039 20.2243 21.6156C19.2833 21.1584 18.6288 20.3764 18.1627 19.6416C17.6912 18.8982 17.3284 18.0658 17.0369 17.3581C16.959 17.1691 16.8875 16.9926 16.8207 16.8277C16.617 16.3247 16.4567 15.929 16.2915 15.611C16.1158 15.2728 15.9647 15.0228 15.8382 14.8421C15.5575 15.2 15.2122 15.7638 14.7533 16.5796C14.6002 16.8519 14.4362 17.1487 14.2618 17.4643C13.8561 18.1985 13.3943 19.0343 12.8826 19.8987C12.3095 20.8668 11.4193 21.6164 10.3168 21.8864C9.1875 22.163 8.01548 21.8904 7.02912 21.1366C5.14201 19.6945 4 16.6077 4 11.9634H6.93719C6.93719 16.3492 8.04935 18.2471 8.8259 18.8406C9.17137 19.1046 9.43356 19.1124 9.61022 19.0691C9.81376 19.0193 10.1014 18.8486 10.3473 18.4332C10.8368 17.6063 11.2614 16.8376 11.6583 16.1193C11.8388 15.7925 12.0136 15.4761 12.1861 15.1695C12.7046 14.2476 13.2384 13.3445 13.802 12.7254C14.0888 12.4103 14.4729 12.0659 14.9699 11.8616C15.5241 11.6337 16.1402 11.6143 16.7342 11.8564C17.2689 12.0743 17.6781 12.4599 17.9926 12.8446C18.3152 13.239 18.615 13.728 18.9047 14.2858C19.1389 14.7369 19.3715 15.3122 19.5871 15.8452C19.6452 15.9889 19.702 16.1296 19.7574 16.2639C20.0417 16.9542 20.325 17.5856 20.6514 18.1001C20.9832 18.6232 21.2783 18.8933 21.5202 19.0108C21.6978 19.0971 21.9762 19.1693 22.512 18.9682C22.5131 18.9675 22.5684 18.9418 22.6772 18.8414C22.7986 18.7293 22.9494 18.5589 23.1306 18.3123C23.4982 17.812 23.8972 17.1299 24.3675 16.2771C24.5116 16.0158 24.6612 15.7405 24.8167 15.4544C25.6427 13.9343 26.6351 12.1081 27.8529 10.4539C29.3068 8.47894 31.196 6.58201 33.7434 5.62931C36.3418 4.65755 39.4014 4.7498 43 6.33843L41.802 8.98853C38.7647 7.64772 36.5186 7.69485 34.783 8.34394C32.9965 9.01209 31.5233 10.402 30.228 12.1614C29.1392 13.6405 28.2566 15.2625 27.4284 16.7845C27.2661 17.0828 27.1058 17.3773 26.9465 17.6662C26.4761 18.519 25.998 19.35 25.5073 20.0177Z" fill="white"/>
</g>
<defs>
<clipPath id="clip0_933_4332">
<rect width="32" height="32" fill="white"/>
</clipPath>
</defs>
</svg>
