<svg width="22" height="22" viewBox="0 0 22 22" fill="none" xmlns="http://www.w3.org/2000/svg">
<g clip-path="url(#clip0_6003_307)">
<mask id="mask0_6003_307" style="mask-type:luminance" maskUnits="userSpaceOnUse" x="0" y="0" width="22" height="22">
<path d="M22 0H0V22H22V0Z" fill="white"/>
</mask>
<g mask="url(#mask0_6003_307)">
<path fill-rule="evenodd" clip-rule="evenodd" d="M11 18.3333C11.5062 18.3333 11.9166 18.7437 11.9166 19.25V21.0833C11.9166 21.5896 11.5062 22 11 22C10.4937 22 10.0833 21.5896 10.0833 21.0833V19.25C10.0833 18.7437 10.4937 18.3333 11 18.3333Z" fill="#3A767B"/>
<path fill-rule="evenodd" clip-rule="evenodd" d="M16.1818 16.1822C16.5397 15.8242 17.1201 15.8242 17.4781 16.1822L18.7798 17.4838C19.1378 17.8418 19.1378 18.4222 18.7798 18.7802C18.4218 19.1382 17.8414 19.1382 17.4834 18.7802L16.1818 17.4785C15.8238 17.1206 15.8238 16.5402 16.1818 16.1822Z" fill="#3A767B"/>
<path fill-rule="evenodd" clip-rule="evenodd" d="M5.81836 16.1822C6.17634 16.5402 6.17634 17.1206 5.81836 17.4785L4.51669 18.7802C4.15871 19.1382 3.57831 19.1382 3.22033 18.7802C2.86235 18.4222 2.86235 17.8418 3.22033 17.4838L4.522 16.1822C4.87998 15.8242 5.46038 15.8242 5.81836 16.1822Z" fill="#3A767B"/>
<path fill-rule="evenodd" clip-rule="evenodd" d="M18.3333 11C18.3333 10.4937 18.7437 10.0833 19.25 10.0833H21.0833C21.5896 10.0833 22 10.4937 22 11C22 11.5063 21.5896 11.9167 21.0833 11.9167H19.25C18.7437 11.9167 18.3333 11.5063 18.3333 11Z" fill="#3A767B"/>
<path fill-rule="evenodd" clip-rule="evenodd" d="M0 11C0 10.4937 0.410406 10.0833 0.916667 10.0833H2.75C3.25626 10.0833 3.66667 10.4937 3.66667 11C3.66667 11.5063 3.25626 11.9167 2.75 11.9167H0.916667C0.410406 11.9167 0 11.5063 0 11Z" fill="#3A767B"/>
<path fill-rule="evenodd" clip-rule="evenodd" d="M5.5 11C5.5 7.96244 7.96244 5.5 11 5.5C14.0375 5.5 16.5 7.96244 16.5 11C16.5 14.0375 14.0375 16.5 11 16.5C7.96244 16.5 5.5 14.0375 5.5 11ZM11 7.33333C8.97496 7.33333 7.33333 8.97496 7.33333 11C7.33333 13.025 8.97496 14.6667 11 14.6667C13.025 14.6667 14.6667 13.025 14.6667 11C14.6667 8.97496 13.025 7.33333 11 7.33333Z" fill="#3A767B"/>
<path fill-rule="evenodd" clip-rule="evenodd" d="M18.7798 3.2199C19.1378 3.57788 19.1378 4.15828 18.7798 4.51626L17.4781 5.81793C17.1201 6.17591 16.5397 6.17591 16.1818 5.81793C15.8238 5.45995 15.8238 4.87955 16.1818 4.52157L17.4834 3.2199C17.8414 2.86192 18.4218 2.86192 18.7798 3.2199Z" fill="#3A767B"/>
<path fill-rule="evenodd" clip-rule="evenodd" d="M3.22033 3.2199C3.57831 2.86192 4.15871 2.86192 4.51669 3.2199L5.81836 4.52157C6.17634 4.87955 6.17634 5.45995 5.81836 5.81793C5.46038 6.17591 4.87998 6.17591 4.522 5.81793L3.22033 4.51626C2.86235 4.15828 2.86235 3.57788 3.22033 3.2199Z" fill="#3A767B"/>
<path fill-rule="evenodd" clip-rule="evenodd" d="M11 0C11.5062 0 11.9166 0.410406 11.9166 0.916667V2.75C11.9166 3.25626 11.5062 3.66667 11 3.66667C10.4937 3.66667 10.0833 3.25626 10.0833 2.75V0.916667C10.0833 0.410406 10.4937 0 11 0Z" fill="#3A767B"/>
</g>
</g>
<defs>
<clipPath id="clip0_6003_307">
<rect width="22" height="22" fill="white"/>
</clipPath>
</defs>
</svg>
