<svg width="22" height="22" viewBox="0 0 22 22" fill="none" xmlns="http://www.w3.org/2000/svg">
<path fill-rule="evenodd" clip-rule="evenodd" d="M14.2083 17.1875C14.2083 15.5422 15.5422 14.2084 17.1875 14.2084C18.8328 14.2084 20.1666 15.5422 20.1666 17.1875C20.1666 18.8329 18.8328 20.1667 17.1875 20.1667C15.5422 20.1667 14.2083 18.8329 14.2083 17.1875ZM17.1875 16.0417C16.5547 16.0417 16.0416 16.5548 16.0416 17.1875C16.0416 17.8203 16.5547 18.3334 17.1875 18.3334C17.8203 18.3334 18.3333 17.8203 18.3333 17.1875C18.3333 16.5548 17.8203 16.0417 17.1875 16.0417Z" fill="#3A767B"/>
<path fill-rule="evenodd" clip-rule="evenodd" d="M5.27081 4.81254C5.27081 4.30628 5.68122 3.89587 6.18748 3.89587H14.4375C15.4099 3.89587 16.3426 4.28218 17.0302 4.96982C17.7178 5.65744 18.1041 6.59006 18.1041 7.56254C18.1041 8.53502 17.7178 9.46765 17.0302 10.1553C16.3426 10.8429 15.4099 11.2292 14.4375 11.2292H6.18748C5.51894 11.2292 5.19123 11.1786 4.71847 11.6513M4.405 15.5326C3.93226 15.0598 3.66665 14.4186 3.66665 13.75C3.66665 13.0815 4.24573 12.1241 4.71847 11.6513M4.405 15.5326C4.87776 16.0053 5.51894 16.2709 6.18748 16.2709H15.125C15.6312 16.2709 16.0416 16.6813 16.0416 17.1875C16.0416 17.6938 15.6312 18.1042 15.125 18.1042H6.18748C5.03268 18.1042 3.9252 17.6455 3.10865 16.829C2.29211 16.0124 1.83331 14.9049 1.83331 13.75C1.83331 12.5952 2.29206 11.4877 3.1086 10.6712C3.92515 9.85467 5.03268 9.39587 6.18748 9.39587H14.4375C14.9236 9.39587 15.39 9.2027 15.7338 8.85888C16.0776 8.51507 16.2708 8.04875 16.2708 7.56254C16.2708 7.07633 16.0776 6.61001 15.7338 6.26617C15.39 5.92236 14.9237 5.72921 14.4375 5.72921H6.18748C5.68122 5.72921 5.27081 5.3188 5.27081 4.81254" fill="#3A767B"/>
</svg>
