<svg width="252" height="147" viewBox="0 0 252 147" fill="none" xmlns="http://www.w3.org/2000/svg">
<path fill-rule="evenodd" clip-rule="evenodd" d="M135.105 62.1942C139.358 60.283 144.754 58.4237 150.115 59.2744C157.596 60.4616 163.356 63.9617 167.041 69.493C170.49 74.6715 171.489 80.6994 171.662 85.9223C171.838 91.2061 171.187 96.6331 170.547 101.197C170.376 102.416 170.21 103.55 170.055 104.611C169.583 107.844 169.211 110.388 169.099 112.54C168.979 114.829 169 116.584 169.103 117.904C171.625 116.864 175.099 114.939 179.916 112.033C181.524 111.064 183.262 109.998 185.109 108.864C189.408 106.228 194.301 103.226 199.536 100.223C205.399 96.8593 212.231 95.5779 218.703 97.4326C225.334 99.3326 230.526 104.231 233.313 111.094C238.644 124.225 235.187 143.748 221.168 168.031L206.094 159.328C219.333 136.397 219.355 123.179 217.161 117.775C216.185 115.371 214.863 114.553 213.826 114.256C212.63 113.914 210.64 113.954 208.123 115.397C203.115 118.27 198.615 121.031 194.411 123.611C192.498 124.784 190.646 125.921 188.835 127.013C183.391 130.296 177.925 133.437 173.164 135.004C170.741 135.801 167.73 136.464 164.563 136.06C161.031 135.609 157.811 133.885 155.493 130.859C153.407 128.136 152.471 124.907 152.018 121.964C151.553 118.946 151.49 115.501 151.687 111.726C151.847 108.674 152.39 104.977 152.893 101.551C153.028 100.627 153.161 99.7236 153.283 98.8574C153.907 94.4057 154.359 90.2653 154.237 86.6081C154.113 82.89 153.414 80.6033 152.527 79.272C151.877 78.295 150.666 77.0923 147.309 76.5564C147.301 76.557 146.94 76.5274 146.079 76.7298C145.117 76.9559 143.829 77.4006 142.154 78.153C138.758 79.6794 134.651 82.0634 129.663 85.1286C128.135 86.0676 126.536 87.0638 124.874 88.0992C116.047 93.5991 105.441 100.207 94.1983 105.248C80.7749 111.266 65.3535 115.586 49.4044 113.019C33.136 110.401 17.7128 100.853 4.04021 81.8847L18.1881 71.5786C29.7279 87.5882 41.397 93.9968 52.2635 95.7456C63.4491 97.5458 75.2048 94.6438 87.1633 89.2825C97.2157 84.7758 106.641 78.9103 115.486 73.4064C117.22 72.3276 118.931 71.2627 120.621 70.2246C125.609 67.1592 130.571 64.2316 135.105 62.1942Z" fill="#2A575B"/>
</svg>
