<svg width="100" height="32" viewBox="0 0 100 32" fill="none" xmlns="http://www.w3.org/2000/svg">
<path d="M100 22.3614C100 24.4504 99.5992 26.2126 98.7976 27.648C97.996 29.0773 96.9142 30.1615 95.5521 30.9005C94.19 31.6335 92.6712 32 90.9958 32C89.3082 32 87.7834 31.6304 86.4213 30.8914C85.0653 30.1462 83.9864 29.0589 83.1848 27.6297C82.3893 26.1943 81.9915 24.4382 81.9915 22.3614C81.9915 20.2725 82.3893 18.5134 83.1848 17.0841C83.9864 15.6487 85.0653 14.5645 86.4213 13.8315C87.7834 13.0924 89.3082 12.7229 90.9958 12.7229C92.6712 12.7229 94.19 13.0924 95.5521 13.8315C96.9142 14.5645 97.996 15.6487 98.7976 17.0841C99.5992 18.5134 100 20.2725 100 22.3614ZM94.8289 22.3614C94.8289 21.2376 94.6812 20.2908 94.3859 19.5212C94.0966 18.7455 93.6657 18.1591 93.0931 17.7621C92.5266 17.3589 91.8275 17.1574 90.9958 17.1574C90.164 17.1574 89.4619 17.3589 88.8893 17.7621C88.3228 18.1591 87.8919 18.7455 87.5966 19.5212C87.3073 20.2908 87.1626 21.2376 87.1626 22.3614C87.1626 23.4853 87.3073 24.4351 87.5966 25.2109C87.8919 25.9805 88.3228 26.5669 88.8893 26.97C89.4619 27.367 90.164 27.5655 90.9958 27.5655C91.8275 27.5655 92.5266 27.367 93.0931 26.97C93.6657 26.5669 94.0966 25.9805 94.3859 25.2109C94.6812 24.4351 94.8289 23.4853 94.8289 22.3614Z" fill="#3A767B"/>
<path d="M79.6817 12.9794V31.7434H74.6553V12.9794H79.6817Z" fill="#3A767B"/>
<path d="M10.906 12.9558H15.9091V24.9882C15.9091 26.4189 15.5732 27.657 14.9013 28.7025C14.2354 29.7419 13.3056 30.5459 12.1118 31.1145C10.918 31.677 9.53226 31.9582 7.95455 31.9582C6.36484 31.9582 4.97309 31.677 3.77931 31.1145C2.58553 30.5459 1.6557 29.7419 0.98982 28.7025C0.32994 27.657 0 26.4189 0 24.9882V12.9558H5.00309V24.548C5.00309 25.1289 5.12907 25.6486 5.38102 26.1071C5.63297 26.5595 5.98091 26.9142 6.42483 27.171C6.87475 27.4277 7.38465 27.5561 7.95455 27.5561C8.53045 27.5561 9.04035 27.4277 9.48427 27.171C9.92819 26.9142 10.2761 26.5595 10.5281 26.1071C10.78 25.6486 10.906 25.1289 10.906 24.548V12.9558Z" fill="#3A767B"/>
<path fill-rule="evenodd" clip-rule="evenodd" d="M59.4939 28.2321C58.6524 29.4096 57.4973 30.7512 55.9337 31.3564C53.7516 32.201 51.6724 32.154 49.8347 31.236C48.1142 30.3765 46.9174 28.9065 46.0652 27.5251C45.2031 26.1276 44.5398 24.5627 44.0068 23.2323C43.8645 22.8769 43.7337 22.5452 43.6116 22.2351C43.239 21.2896 42.9459 20.5457 42.644 19.9479C42.3228 19.312 42.0464 18.8421 41.8152 18.5023C41.3019 19.1751 40.6706 20.2351 39.8316 21.7688C39.5516 22.2807 39.2517 22.8386 38.9329 23.4319C38.1911 24.8122 37.3467 26.3833 36.4111 28.0085C35.3633 29.8283 33.7357 31.2375 31.72 31.7451C29.6551 32.2651 27.5122 31.7526 25.7088 30.3356C22.2584 27.6246 20.1704 21.8216 20.1704 13.0907H25.5407C25.5407 21.3355 27.5742 24.9036 28.994 26.0192C29.6256 26.5155 30.105 26.5302 30.428 26.4488C30.8002 26.3551 31.326 26.0344 31.7757 25.2533C32.6706 23.6989 33.4471 22.2538 34.1726 20.9035C34.5027 20.2891 34.8223 19.6943 35.1377 19.1178C36.0858 17.3848 37.0618 15.6869 38.0923 14.5231C38.6166 13.9309 39.3189 13.2834 40.2275 12.8992C41.2408 12.4708 42.3673 12.4343 43.4534 12.8895C44.431 13.2991 45.1792 14.024 45.7543 14.7472C46.344 15.4888 46.8922 16.4079 47.4218 17.4565C47.8501 18.3045 48.2754 19.386 48.6695 20.3881C48.7757 20.6583 48.8797 20.9227 48.9809 21.1752C49.5007 22.473 50.0188 23.6598 50.6155 24.6271C51.2222 25.6105 51.7618 26.1183 52.2041 26.3393C52.5287 26.5014 53.0377 26.6372 54.0173 26.2591C54.0193 26.2578 54.1206 26.2094 54.3194 26.0208C54.5415 25.8101 54.8171 25.4896 55.1484 25.026C55.8206 24.0855 56.55 22.8033 57.41 21.2001C57.6735 20.7089 57.947 20.1914 58.2313 19.6534C59.7416 16.7959 61.5561 13.3626 63.7826 10.253C66.4409 6.54013 69.8951 2.97405 74.5527 1.18306C79.3036 -0.643777 84.8976 -0.470352 91.4773 2.51614L89.2868 7.49813C83.7336 4.9775 79.6269 5.0661 76.4535 6.28633C73.187 7.54242 70.4935 10.1553 68.1253 13.4629C66.1345 16.2434 64.5207 19.2926 63.0065 22.1539C62.7097 22.7148 62.4167 23.2684 62.1254 23.8114C61.2653 25.4147 60.3911 26.9768 59.4939 28.2321Z" fill="#3A767B"/>
</svg>
