<svg width="41" height="40" viewBox="0 0 41 40" fill="none" xmlns="http://www.w3.org/2000/svg">
<rect x="0.5" y="0.5" width="39.2339" height="38.2982" rx="19.1491" fill="#E7F3F4" stroke="#3A767B"/>
<path d="M17.155 9.96094C15.5708 9.96094 14.2879 11.111 13.9672 12.6045C12.0331 12.9511 10.5202 14.5645 10.5202 16.5957C10.5202 16.7998 10.5429 16.9812 10.572 17.1659C10.0375 17.9531 9.69086 18.8796 9.69086 19.9131C9.69086 21.4034 10.4327 22.657 11.4791 23.5674C11.4046 23.8622 11.3495 24.157 11.3495 24.4745C11.3495 26.5252 13.0309 28.2066 15.0816 28.2066C15.1043 28.2066 15.114 28.2066 15.1334 28.2066C15.6161 29.1428 16.452 29.8652 17.5696 29.8652C18.3795 29.8652 19.115 29.5251 19.643 28.984C20.171 29.5251 20.9065 29.8652 21.7164 29.8652C22.834 29.8652 23.6699 29.1428 24.1526 28.2066C24.172 28.2066 24.1817 28.2066 24.2044 28.2066C26.1514 28.2066 27.7486 26.6904 27.9106 24.7854H27.9365C27.9365 24.7337 27.9138 24.6818 27.9106 24.63C27.9138 24.5782 27.9365 24.5264 27.9365 24.4745C27.9365 24.1668 27.8263 23.9043 27.755 23.6193C28.8306 22.7057 29.5952 21.4292 29.5952 19.9131C29.5952 18.8796 29.2485 17.9531 28.714 17.1659C28.7431 16.9812 28.7658 16.7998 28.7658 16.5957C28.7658 14.5645 27.2529 12.9511 25.3188 12.6045C24.9982 11.111 23.7152 9.96094 22.131 9.96094C21.1365 9.96094 20.2521 10.4242 19.643 11.1272C19.0339 10.4242 18.1495 9.96094 17.155 9.96094ZM17.155 11.6196C18.0815 11.6196 18.8137 12.3518 18.8137 13.2783V14.937C18.8137 16.3203 17.709 17.4251 16.3256 17.4251V19.0837C17.2651 19.0837 18.1171 18.7597 18.8137 18.2285V26.9625C18.8137 27.6591 18.2662 28.2066 17.5696 28.2066C16.9509 28.2066 16.4552 27.7789 16.3515 27.1957L16.196 26.3924L15.3926 26.522C15.2468 26.5447 15.1561 26.5479 15.0816 26.5479C13.9283 26.5479 13.0082 25.6278 13.0082 24.4745C13.0082 24.2186 13.0504 23.9789 13.1378 23.7489C13.1443 23.7294 13.1573 23.7165 13.1637 23.697C13.4197 23.0587 13.9769 22.5923 14.6669 22.453L14.33 20.8202C13.465 20.9951 12.7134 21.4551 12.1789 22.1161C11.6573 21.5329 11.3495 20.7619 11.3495 19.9131C11.3495 19.1356 11.6152 18.4423 12.0752 17.8656L12.3344 17.5546L12.2566 17.14C12.2113 16.9456 12.1789 16.7739 12.1789 16.5957C12.1789 15.2124 13.2836 14.1077 14.6669 14.1077H15.4963V13.2783C15.4963 12.3518 16.2284 11.6196 17.155 11.6196ZM22.131 11.6196C23.0576 11.6196 23.7897 12.3518 23.7897 13.2783V14.1077H24.6191C26.0024 14.1077 27.1071 15.2124 27.1071 16.5957C27.1071 16.7739 27.0747 16.9456 27.0294 17.14L26.9516 17.5546L27.2108 17.8656C27.6709 18.4423 27.9365 19.1356 27.9365 19.9131C27.9365 20.9076 27.5121 21.7953 26.8221 22.4011C26.2551 21.899 25.5327 21.5718 24.7228 21.5718C23.9388 21.5718 23.2325 21.8504 22.6753 22.3234L23.7379 23.5933C24.0068 23.3665 24.3372 23.2305 24.7228 23.2305C25.523 23.2305 26.1611 23.8298 26.2519 24.6041C26.1838 25.6958 25.3124 26.5479 24.2044 26.5479C24.1299 26.5479 24.0392 26.5447 23.8935 26.522L23.09 26.3924L22.9345 27.1957C22.8308 27.7789 22.3352 28.2066 21.7164 28.2066C21.0198 28.2066 20.4724 27.6591 20.4724 26.9625V18.2285C21.1689 18.7597 22.0209 19.0837 22.9604 19.0837V17.4251C21.577 17.4251 20.4724 16.3203 20.4724 14.937V13.2783C20.4724 12.3518 21.2045 11.6196 22.131 11.6196Z" fill="#3A767B"/>
</svg>
