<svg width="31" height="452" viewBox="0 0 31 452" fill="none" xmlns="http://www.w3.org/2000/svg">
<line x1="15.5" y1="15" x2="15.5" y2="436" stroke="#3A767B"/>
<path d="M29.5294 14.9081C29.5294 22.5894 23.3025 28.8162 15.6212 28.8162C7.94001 28.8162 1.71313 22.5894 1.71313 14.9081C1.71313 7.22687 7.94001 1 15.6212 1C23.3025 1 29.5294 7.22687 29.5294 14.9081Z" stroke="#3A767B" stroke-opacity="0.61" stroke-width="2"/>
<path d="M29.5294 61.7245C29.5294 69.4058 23.3025 75.6326 15.6212 75.6326C7.94001 75.6326 1.71313 69.4058 1.71313 61.7245C1.71313 54.0433 7.94001 47.8164 15.6212 47.8164C23.3025 47.8164 29.5294 54.0433 29.5294 61.7245Z" stroke="#3A767B" stroke-opacity="0.61" stroke-width="2"/>
<path d="M29.5294 108.54C29.5294 116.222 23.3025 122.449 15.6212 122.449C7.94001 122.449 1.71313 116.222 1.71313 108.54C1.71313 100.859 7.94001 94.6323 15.6212 94.6323C23.3025 94.6323 29.5294 100.859 29.5294 108.54Z" stroke="#3A767B" stroke-opacity="0.61" stroke-width="2"/>
<path d="M29.5294 155.357C29.5294 163.038 23.3025 169.265 15.6212 169.265C7.94001 169.265 1.71313 163.038 1.71313 155.357C1.71313 147.676 7.94001 141.449 15.6212 141.449C23.3025 141.449 29.5294 147.676 29.5294 155.357Z" stroke="#3A767B" stroke-opacity="0.61" stroke-width="2"/>
<path d="M29.5294 202.173C29.5294 209.854 23.3025 216.081 15.6212 216.081C7.94001 216.081 1.71313 209.854 1.71313 202.173C1.71313 194.492 7.94001 188.265 15.6212 188.265C23.3025 188.265 29.5294 194.492 29.5294 202.173Z" stroke="#3A767B" stroke-opacity="0.61" stroke-width="2"/>
<path d="M29.5294 248.989C29.5294 256.67 23.3025 262.897 15.6212 262.897C7.94001 262.897 1.71313 256.67 1.71313 248.989C1.71313 241.308 7.94001 235.081 15.6212 235.081C23.3025 235.081 29.5294 241.308 29.5294 248.989Z" stroke="#3A767B" stroke-opacity="0.61" stroke-width="2"/>
<path d="M29.5294 295.806C29.5294 303.487 23.3025 309.714 15.6212 309.714C7.94001 309.714 1.71313 303.487 1.71313 295.806C1.71313 288.124 7.94001 281.897 15.6212 281.897C23.3025 281.897 29.5294 288.124 29.5294 295.806Z" stroke="#3A767B" stroke-opacity="0.61" stroke-width="2"/>
<path d="M29.5294 342.621C29.5294 350.303 23.3025 356.53 15.6212 356.53C7.94001 356.53 1.71313 350.303 1.71313 342.621C1.71313 334.94 7.94001 328.713 15.6212 328.713C23.3025 328.713 29.5294 334.94 29.5294 342.621Z" stroke="#3A767B" stroke-opacity="0.61" stroke-width="2"/>
<path d="M29.5294 389.438C29.5294 397.119 23.3025 403.346 15.6212 403.346C7.94001 403.346 1.71313 397.119 1.71313 389.438C1.71313 381.757 7.94001 375.53 15.6212 375.53C23.3025 375.53 29.5294 381.757 29.5294 389.438Z" stroke="#3A767B" stroke-opacity="0.61" stroke-width="2"/>
<path d="M29.5294 436.254C29.5294 443.936 23.3025 450.162 15.6212 450.162C7.94001 450.162 1.71313 443.936 1.71313 436.254C1.71313 428.573 7.94001 422.346 15.6212 422.346C23.3025 422.346 29.5294 428.573 29.5294 436.254Z" stroke="#3A767B" stroke-opacity="0.61" stroke-width="2"/>
<circle cx="15.5" cy="15.5" r="2.5" fill="#FF522D"/>
<circle cx="15.5" cy="61.5" r="2.5" fill="#FF522D"/>
<circle cx="15.5" cy="108.5" r="2.5" fill="#FF522D"/>
<circle cx="15.5" cy="154.5" r="2.5" fill="#FF522D"/>
<circle cx="15.5" cy="202.5" r="2.5" fill="#FF522D"/>
<circle cx="15.5" cy="248.5" r="2.5" fill="#FF522D"/>
<circle cx="15.5" cy="295.5" r="2.5" fill="#FF522D"/>
<circle cx="15.5" cy="341.5" r="2.5" fill="#FF522D"/>
<circle cx="15.5" cy="295.5" r="2.5" fill="#FF522D"/>
<circle cx="15.5" cy="341.5" r="2.5" fill="#FF522D"/>
<circle cx="15.5" cy="389.5" r="2.5" fill="#FF522D"/>
<circle cx="15.5" cy="435.5" r="2.5" fill="#FF522D"/>
</svg>
